HIERARCHY
ROOT Hips
{
    OFFSET 14.017959594726562 94.20136260986328 -18.27743911743164
    CHANNELS 6 Xposition Yposition Zposition Zrotation Xrotation Yrotation
    JOINT RightUpLeg
    {
        OFFSET -14.017959594726562 0.0 0.0
        CHANNELS 3 Zrotation Xrotation Yrotation
        JOINT RightLeg
        {
            OFFSET 0.0 -48.50776672363281 0.0
            CHANNELS 3 Zrotation Xrotation Yrotation
            JOINT RightFoot
            {
                OFFSET 0.0 -45.69359588623047 0.0
                CHANNELS 3 Zrotation Xrotation Yrotation
                End Site
                {
                    OFFSET 0.0 0.0 18.27743911743164
                }
            }
        }
    }
    JOINT LeftUpLeg
    {
        OFFSET 14.017959594726562 0.0 0.0
        CHANNELS 3 Zrotation Xrotation Yrotation
        JOINT LeftLeg
        {
            OFFSET 0.0 -48.50776672363281 0.0
            CHANNELS 3 Zrotation Xrotation Yrotation
            JOINT LeftFoot
            {
                OFFSET 0.0 -45.69359588623047 0.0
                CHANNELS 3 Zrotation Xrotation Yrotation
                End Site
                {
                    OFFSET 0.0 0.0 18.27743911743164
                }
            }
        }
    }
    JOINT Spine
    {
        OFFSET 0.0 25.817413330078125 0.0
        CHANNELS 3 Zrotation Xrotation Yrotation
        JOINT Spine3
        {
            OFFSET 0.0 25.65521240234375 0.0
            CHANNELS 3 Zrotation Xrotation Yrotation
            JOINT Neck
            {
                OFFSET 0.0 11.8610200881958 0.0
                CHANNELS 3 Zrotation Xrotation Yrotation
                End Site
                {
                    OFFSET 0.0 4.74440860748291 0.0
                }
            }
            JOINT LeftArm
            {
                OFFSET 14.991311073303223 0.0 0.0
                CHANNELS 3 Zrotation Xrotation Yrotation
                JOINT LeftForeArm
                {
                    OFFSET 29.050922393798828 0.0 0.0
                    CHANNELS 3 Zrotation Xrotation Yrotation
                    JOINT LeftHand
                    {
                        OFFSET 23.151012420654297 0.0 0.0
                        CHANNELS 3 Zrotation Xrotation Yrotation
                        End Site
                        {
                            OFFSET 9.260404586791992 0.0 0.0
                        }
                    }
                }
            }
            JOINT RightArm
            {
                OFFSET -14.991311073303223 0.0 0.0
                CHANNELS 3 Zrotation Xrotation Yrotation
                JOINT RightForeArm
                {
                    OFFSET -29.050922393798828 0.0 0.0
                    CHANNELS 3 Zrotation Xrotation Yrotation
                    JOINT RightHand
                    {
                        OFFSET -23.151012420654297 0.0 0.0
                        CHANNELS 3 Zrotation Xrotation Yrotation
                        End Site
                        {
                            OFFSET -9.260404586791992 0.0 0.0
                        }
                    }
                }
            }
        }
    }
}
MOTION
Frames: 6
Frame Time: 0.03333333333333333
-1.7619731806917116e-05 95.09326934814453 -0.0010423340136185288 -3.8479742703694524 -10.349389083862079 -18.318576960360392 2.755122778714275 18.304915541907793 -1.9621263862300775 -1.3103788284877287 6.354845362229782 -0.509423016649124 3.975693351829396e-16 -1.3793457181406746e-33 -3.975693351829396e-16 3.8546924502568176 18.26011515293045 -2.3147314892774 -1.4283112240274933 6.112788897149446 -0.5935300775346056 -7.951386703658792e-16 1.5902773407317584e-15 -5.963540027744094e-16 2.0922108335978975 19.37300160990636 -1.8546450044039575 -1.8950319907626816e-08 2.4487363670741084e-07 -1.3640089591101052 1.2971402596702624 0.5067455808210812 -176.77056637910314 147.59676179142033 -15.253800856934955 -175.15156728056905 1.7869018441518823e-07 2.8343318152602786e-08 68.3461772335201 3.1805546814635168e-15 0.0 0.0 -139.58343290894516 -1.657156128680312 174.3663391693152 -2.158370718004974e-06 4.947392075708945e-07 -63.78495573212645 7.95138670365879e-15 1.5902773407317582e-15 -1.1034765745125397e-31
-6.24813765170984e-06 95.09261322021484 -0.000839653133880347 -3.426858048412986 -11.33612142094281 -17.54085632225945 3.4334029292690973 19.323455668909656 -2.421976911532219 -0.8040182372677378 6.835203455846326 -0.7239191253148861 4.586324512817743e-32 1.3914926731402886e-15 -3.776908684237926e-15 0.8140538672269128 19.63901019192213 -1.5769063005986608 -2.244529561145375 5.640762230686986 -0.2136509804055914 1.9878466759146985e-16 2.284541345670492e-33 1.3169484227934877e-15 1.8824219564514106 20.617131953566638 -2.0278526454890264 -7.97194337215436e-08 -7.63846709752793e-07 -1.0252002493171413 0.4356403976219424 -1.6250727092037944 -176.45698243138997 140.29936852387064 -12.049730604349763 -178.41608664128844 2.7884053833075102e-06 -3.741041694395046e-06 59.09015478485722 0.0 -3.1805546814635168e-15 0.0 -132.7714516322047 -4.857686421839651 177.86705442374478 -4.010154149360922e-06 -1.1788244097404302e-06 -57.94151005775376 7.951386703658792e-16 1.5902773407317584e-15 -6.3611093629270335e-15
0.00018499622819945216 95.09223937988281 -0.0007421512855216861 -3.7939290982103677 -12.356442812815496 -17.391755868300862 4.086542108368899 20.629433193347253 -2.857159868714881 -0.6331303212110682 6.94562161332324 -0.8385608649838567 -8.620910738379216e-34 9.93923337957349e-17 9.93923337957349e-16 -0.24247893862845546 20.758899765051954 -1.3297674144016507 -2.478218671507434 4.93654718286956 -0.08893246818642433 4.827710013492361e-33 -1.5902773407317588e-15 3.4787316828507225e-16 2.621370219733627 23.087462658391164 -2.5994822341919717 2.496746814466612e-07 1.233125584008021e-06 -0.6041507906841999 -0.14046246313966326 -2.9641450260900424 -174.85587611630717 134.21315012985744 -16.333626822625504 -178.7651435712061 1.160332532584807e-08 1.3107879663717121e-06 48.46916410196168 6.3611093629270335e-15 0.0 0.0 -127.51900992310297 -9.894106167639274 178.4174277786587 2.166171065934315e-06 -2.3974901406950537e-08 -48.36342116720168 2.3854160110976384e-15 0.0 0.0
0.00020333168504294008 95.09191131591797 -0.0007582557154819369 -3.976192028239406 -13.338655727370613 -17.386806495175666 3.8962625307652528 22.209912260601982 -3.039718967644428 -1.2783999235908776 7.652753373286817 -0.8172623051655716 -7.951386703658792e-16 9.939233379573487e-17 2.3854160110976376e-15 -0.7961328083443555 22.22592307901205 -1.2556417851947086 -2.057061482176666 4.800421444537731 -0.0853823178928165 9.939233379573489e-17 -2.4848083448933722e-17 5.34233794152075e-16 3.183243768439406 25.351599698513603 -3.135095746010457 -2.0700310014577075e-07 6.642874989779992e-07 -0.15623945358985492 -0.48835796592611436 -4.411683035972791 -173.978624352291 127.95732191280752 -23.234224439337783 -178.7183222627639 -1.5182510211509686e-06 -7.940041722851065e-07 41.27129535011578 6.3611093629270335e-15 -3.531125038440127e-31 -6.3611093629270335e-15 -122.73054857744971 -18.48454408901514 178.4537556424027 1.408825263352854e-06 -2.226166790657259e-06 -39.903283810192 -2.1866313435061676e-15 1.5902773407317584e-15 3.034560579909484e-32
0.00017782558279577643 95.09163665771484 -0.0007582521066069603 -3.815937584404822 -14.348059203161137 -16.673691886312 3.635676101468328 23.533689515457805 -3.216449121489729 -2.311016192651933 8.485564813187489 -0.7431521968640502 -1.5902773407317584e-15 -3.2799470152592518e-15 3.9756933518293955e-16 -0.9092213470553633 23.398721530057976 -1.3827485733987346 -1.3413476107806286 5.26841268755407 -0.1705870452516247 2.484808344893372e-17 2.491982010312742e-34 1.1492238595131845e-15 2.493417749864753 27.190853502480728 -3.153562256562556 5.376465298313976e-08 -1.0263800284552036e-08 -0.07457177834198495 0.4531873531913119 -5.180029549184929 -174.5655658793319 121.71081746972264 -27.51368529779559 -177.5965079609872 -3.939106450186587e-06 2.41430934710141e-06 32.6368063981085 3.1805546814635168e-15 -3.1805546814635168e-15 -6.3611093629270335e-15 -117.54359814037774 -24.161243230317925 177.39185148884815 1.5283780079817852e-07 -1.810988313335824e-06 -32.74272474559168 4.963404668924511e-15 1.5902773407317582e-15 -3.1805546814635168e-15
0.00015779901877976954 95.09146881103516 -0.0007632573833689094 -3.352238714314695 -15.001329588925575 -15.71074097214399 3.0842761454472027 24.341128434808805 -3.283802988276815 -2.7005398497538016 9.233586672736728 -0.7251236473954015 -3.975693351829397e-16 4.482873583957193e-33 -1.292100339344554e-15 -0.844951124600121 23.929484628624607 -1.6276666353830755 -1.289381299755684 5.435027138313944 -0.22548536477593084 -4.969616689786745e-16 -7.004489974933113e-33 1.6151254241806921e-15 1.7038656567357309 28.393899836601655 -3.1254778995915995 -6.267202039272708e-07 -2.0984745095568015e-07 -0.26945880534657873 1.3967142875834682 -6.573495688255613 -175.34110523632035 119.0769707588715 -37.04358217393535 -173.81022568132187 -3.22018277162131e-07 -4.316973100942469e-06 29.566882812958625 0.0 -3.1805546814635168e-15 0.0 -113.52876018217475 -32.382412043561835 174.4779976921952 -6.035230453467587e-06 2.67522130205233e-06 -30.850955992915097 -8.746525374024672e-15 0.0 0.0
